<svg width="148" height="132" viewBox="0 0 148 132" fill="none" xmlns="http://www.w3.org/2000/svg">
<path d="M66.2222 112.5H28.8889C20.1769 112.5 15.821 112.5 12.4935 110.81C9.56648 109.325 7.18679 106.953 5.69548 104.037C4 100.722 4 96.3808 4 87.7V28.8C4 20.1192 4 15.7788 5.69548 12.4632C7.18679 9.5466 9.56648 7.17541 12.4935 5.68942C15.821 4 20.177 4 28.8889 4H119.111C127.823 4 132.179 4 135.507 5.68942C138.433 7.17541 140.813 9.5466 142.304 12.4632C144 15.7788 144 20.1192 144 28.8V58.25M4 35H144M120.667 128V81.5M144 104.756L97.3333 104.75" stroke="#303030" stroke-width="8" stroke-linecap="round" stroke-linejoin="round"/>
</svg>
